# xmcd CD database file
#
# Track frame offsets:
#	150
#	15307
#	29641
#	43962
#	60161
#	75643
#	93108
#	105858
#	121236
#	134966
#	150899
#	166164
#	179674
#
# Disc length: 2595 seconds
#
# Revision: 0
# Processed by: cddbd v1.5.2PL0 Copyright (c) Steve Scherf et al.
# Submitted via: CDex 1.70beta2
#
DISCID=970a210d
DTITLE=Tennessee Stud - Traveling on songs
DYEAR=2011
DGENRE=Country
TTITLE0=01 -  ROLLING DICE
TTITLE1=02 -  IS IT TRUE
TTITLE2=03 - TURNSTILES
TTITLE3=04 -  I'M WALKING
TTITLE4=05 - DIVING IN THE WILD
TTITLE5=06 - STANDING IN THE STREAM
TTITLE6=07 - MY OLD MAN
TTITLE7=08 - DANCE LIKE MAD
TTITLE8=09 - THE KING
TTITLE9=10 - WAGON WHEEL
TTITLE10=11 - NIGHTMARE
TTITLE11=12 - TRAVELING ON SONGS
TTITLE12=13 - CRAZY
EXTD=YEAR: 2011
EXTT0=
EXTT1=
EXTT2=
EXTT3=
EXTT4=
EXTT5=
EXTT6=
EXTT7=
EXTT8=
EXTT9=
EXTT10=
EXTT11=
EXTT12=
PLAYORDER=
